<svg xmlns="http://www.w3.org/2000/svg" viewBox="0 0 58 58"><defs><style>.cls-1{fill:#098b77;}.cls-2{fill:#fff;}</style></defs><g id="Layer_2" data-name="Layer 2"><g id="Layer_1-2" data-name="Layer 1"><path class="cls-1" d="M29,58A29,29,0,1,0,0,29,29,29,0,0,0,29,58"/><path class="cls-2" d="M11.89,32.14c6,0,11.85,0,17.69,0a7.7,7.7,0,0,1,5.9,2.49c1.08,1.13,2.18,2.25,3.3,3.33a1.67,1.67,0,0,0,1,.43c2,.05,3.94,0,5.91.05A2.73,2.73,0,0,1,48.54,41a2.85,2.85,0,0,1-2.77,3.06c-2.56,0-5.13,0-7.7,0A2.82,2.82,0,0,1,36,43.2c-.89-.92-1.82-1.8-2.69-2.74a3.17,3.17,0,0,0-2.55-1.07c-4.31,0-8.62,0-12.92,0a6.78,6.78,0,0,1-.78,0,.77.77,0,0,1-.78-.88,2.06,2.06,0,0,1,.74-1c.14-.12.45,0,.68,0,4.44,0,8.88,0,13.32,0a4.44,4.44,0,0,1,3.4,1.42c.93,1,1.85,1.92,2.83,2.82a1.75,1.75,0,0,0,1.08.45c2.36,0,4.72,0,7.08,0,.74,0,1.25-.42,1.26-1s-.43-.88-1.23-.88c-1.94,0-3.89-.05-5.83,0a2.53,2.53,0,0,1-2.11-.89c-1.11-1.21-2.32-2.33-3.45-3.52A5.85,5.85,0,0,0,29.53,34c-6.2,0-12.41,0-18.61,0-1.44,0-1.79-.56-1.16-1.84,1.63-3.29,3.32-6.56,4.89-9.88a4.48,4.48,0,0,1,7.52-1.17c2.48,2.74,5.17,5.3,7.76,7.94.17.17.34.33.49.51a.9.9,0,0,1,0,1.33.88.88,0,0,1-1.32,0c-.16-.14-.3-.29-.45-.44l-8.13-8.24a2.39,2.39,0,0,0-3.82.37c-1.66,3.1-3.17,6.28-4.8,9.54"/><path class="cls-2" d="M26.88,14.82a2.69,2.69,0,1,0-2.62,2.78,2.77,2.77,0,0,0,2.62-2.78m-2.75,4.62a4.5,4.5,0,0,1-4.43-4.66,4.49,4.49,0,1,1,9,.13,4.49,4.49,0,0,1-4.55,4.53"/><path class="cls-2" d="M41.83,29.71a2.75,2.75,0,1,0,2.71,2.77,2.78,2.78,0,0,0-2.71-2.77m4.5,2.8a4.49,4.49,0,1,1-4.46-4.63,4.49,4.49,0,0,1,4.46,4.63"/><path class="cls-2" d="M21.41,28.33c-.28.55-.47.94-.69,1.32a.84.84,0,0,1-1.18.39.82.82,0,0,1-.38-1.18c.37-.8.76-1.59,1.17-2.36a.81.81,0,0,1,1.35-.26c1.11,1.06,2.19,2.16,3.25,3.27a.81.81,0,0,1-.07,1.24.84.84,0,0,1-1.24-.09c-.73-.75-1.44-1.51-2.21-2.33"/><path class="cls-2" d="M12.3,39.28a.68.68,0,0,1-.69-.75.71.71,0,1,1,1.41,0,.7.7,0,0,1-.72.73"/></g></g></svg>