<svg xmlns="http://www.w3.org/2000/svg" viewBox="0 0 39.08 33.83"><defs><style>.cls-1{fill:#098b77;}</style></defs><g id="Layer_2" data-name="Layer 2"><g id="Layer_1-2" data-name="Layer 1"><path class="cls-1" d="M2.43,21.85c6,0,11.85,0,17.69,0A7.69,7.69,0,0,1,26,24.32c1.08,1.13,2.18,2.25,3.3,3.34a1.58,1.58,0,0,0,1,.42c2,.06,3.94,0,5.91.06a2.71,2.71,0,0,1,2.84,2.61,2.85,2.85,0,0,1-2.77,3.06c-2.56,0-5.13,0-7.7,0a2.78,2.78,0,0,1-2.08-.91c-.89-.92-1.82-1.79-2.69-2.73a3.21,3.21,0,0,0-2.55-1.08c-4.31,0-8.62,0-12.93,0-.25,0-.51,0-.77,0a.77.77,0,0,1-.78-.89,2.06,2.06,0,0,1,.74-1c.14-.12.45,0,.68,0,4.44,0,8.88,0,13.32,0A4.41,4.41,0,0,1,25,28.62c.93.95,1.85,1.91,2.82,2.82a1.86,1.86,0,0,0,1.09.45c2.36,0,4.72,0,7.08,0,.74,0,1.25-.42,1.26-1S36.77,30,36,30c-1.94,0-3.89,0-5.83,0a2.51,2.51,0,0,1-2.11-.9c-1.11-1.2-2.32-2.32-3.45-3.52a5.84,5.84,0,0,0-4.51-1.89q-9.3,0-18.61,0C0,23.73-.33,23.18.3,21.9,1.93,18.61,3.62,15.34,5.19,12a4.48,4.48,0,0,1,7.52-1.17c2.48,2.75,5.17,5.31,7.76,8a5.9,5.9,0,0,1,.49.51.9.9,0,0,1,0,1.33.88.88,0,0,1-1.32,0,6.2,6.2,0,0,1-.45-.44l-8.13-8.24a2.41,2.41,0,0,0-3.83.37c-1.65,3.1-3.16,6.28-4.79,9.54"/><path class="cls-1" d="M17.42,4.54A2.69,2.69,0,1,0,14.8,7.32a2.76,2.76,0,0,0,2.62-2.78M14.67,9.15a4.49,4.49,0,0,1-4.43-4.66,4.49,4.49,0,1,1,9,.13,4.49,4.49,0,0,1-4.55,4.53"/><path class="cls-1" d="M32.37,19.43a2.75,2.75,0,1,0,2.7,2.77,2.77,2.77,0,0,0-2.7-2.77m4.5,2.8a4.49,4.49,0,1,1-4.46-4.63,4.48,4.48,0,0,1,4.46,4.63"/><path class="cls-1" d="M12,18.05c-.29.54-.47.93-.69,1.31a.84.84,0,0,1-1.18.4.83.83,0,0,1-.38-1.19c.37-.8.75-1.59,1.17-2.36A.81.81,0,0,1,12.22,16q1.66,1.59,3.25,3.26a.81.81,0,0,1-.07,1.24.83.83,0,0,1-1.24-.08c-.73-.75-1.44-1.52-2.21-2.33"/><path class="cls-1" d="M2.84,29a.68.68,0,0,1-.69-.75.65.65,0,0,1,.71-.72.66.66,0,0,1,.7.73.7.7,0,0,1-.72.74"/></g></g></svg>