<svg id="Layer_1" data-name="Layer 1" xmlns="http://www.w3.org/2000/svg" viewBox="0 0 24 24"><defs><style>.cls-1{fill:none;}.cls-2{fill:#fff;}</style></defs><title>call-white</title><path class="cls-1" d="M0,0H24V24H0Z" transform="translate(0 0)"/><path class="cls-2" d="M20,15.4a10.3,10.3,0,0,1-3.5-.6,1.16,1.16,0,0,0-1,.2l-1.6,2A15.64,15.64,0,0,1,7,10.2L9,8.5a.8.8,0,0,0,.2-1A10.3,10.3,0,0,1,8.6,4a1,1,0,0,0-1-1H4.2C3.7,3,3,3.2,3,4A17.12,17.12,0,0,0,20,21c.7,0,1-.6,1-1.2V16.3A1,1,0,0,0,20,15.4Z" transform="translate(0 0)"/></svg>