<svg xmlns="http://www.w3.org/2000/svg" viewBox="0 0 58 58"><defs><style>.cls-1{fill:#098b77;}.cls-2{fill:#fff;}</style></defs><g id="Layer_2" data-name="Layer 2"><g id="Layer_1-2" data-name="Layer 1"><path class="cls-1" d="M29,58A29,29,0,1,0,0,29,29,29,0,0,0,29,58"/><path class="cls-2" d="M22.62,23.54l.21,0c.13-.28.22-.58.37-.86a43.67,43.67,0,0,1,2.33-4,2.46,2.46,0,0,1,3.92-.17,4.47,4.47,0,0,1,1,2.2,4.89,4.89,0,0,1-1.39,3.85c-1.71,2.1-2.75,4.35-2.34,7a7.88,7.88,0,0,1-.06,2.74c-.44,2.08.41,3.88,1.55,5.6a7.67,7.67,0,0,0,2,1.94A3.8,3.8,0,0,0,34,42a20.34,20.34,0,0,1-1.2-3.75A68.86,68.86,0,0,0,31,27.19c-.51-1.78.9-3.34,3.06-3.63a3.69,3.69,0,0,1,3.22,1.15c1.55-3.07,1.86-6,0-9a2.39,2.39,0,0,1-.38-1.28,9.06,9.06,0,0,0-.76-4.52c-.6-1.19-1-1.43-2.56-1.37s-2.13,1-1.52,2.09c.25.46.86,1.05,0,1.39s-1.08-.41-1.35-.9A1,1,0,0,0,29,10.86a.74.74,0,0,0-.13,1.21c.32.38.53.82-.08,1.12s-.95,0-1.23-.45a.73.73,0,0,0-1.28,0c-.21.29-.05.77-.05,1.16s0,.67,0,1l-1.1-.13c-.24,0-.57-.14-.72,0a1.18,1.18,0,0,0-.45.64c-.05.09.12.24.15.37s.2.63.06.8-.6.12-.91.2-.69.12-.76.27c-.18.38-.4.88-.25,1.22a7.92,7.92,0,0,1,.31,3.67c0,.55,0,1.1,0,1.66m-1.44.5c-1.05.53-2,1-2.89,1.48a1.92,1.92,0,0,0-.95,1.92,15.21,15.21,0,0,1-1.12,7,6.61,6.61,0,0,1-4.28,3.91,1.77,1.77,0,0,1-.83.12A1,1,0,0,1,10.5,38a.61.61,0,0,1,.3-.58c3.21-.84,4.11-3.09,4.61-5.48a19.94,19.94,0,0,0,.32-4.5,3.25,3.25,0,0,1,1.95-3.11c.89-.48,1.8-.94,2.73-1.37.52-.23.73-.53.67-1-.13-1.14-.19-2.29-.33-3.43a2.62,2.62,0,0,1,1.31-2.85.87.87,0,0,0,.39-.5,2.39,2.39,0,0,1,1.49-1.68,1.19,1.19,0,0,0,.57-.66,2.48,2.48,0,0,1,2-1.67,1.61,1.61,0,0,0,.83-.55,3,3,0,0,1,2.25-1.22,1.39,1.39,0,0,0,.89-.53A3.68,3.68,0,0,1,33.85,7.3c1.46,0,2.7.31,3.36,1.58a10.93,10.93,0,0,1,1.23,5,6.76,6.76,0,0,0,.44,1.67c.41,1.41.87,2.8,1.2,4.21a1,1,0,0,0,.69.85c.78.3,1.57.61,2.31,1a2.43,2.43,0,0,1,1.5,2.29c0,.49,0,1,0,1.46a2.78,2.78,0,0,0,.94,2.5,8.17,8.17,0,0,1,1.8,3.18,2.55,2.55,0,0,1-.2,1.65,18,18,0,0,0-.43,9.44,5.78,5.78,0,0,0,.59,1.36c.18.33.42.72-.18.84A1.37,1.37,0,0,1,46.06,44a9.19,9.19,0,0,1-1-2.66A18.76,18.76,0,0,1,45.76,32c.22-.62.29-1.13-.59-1.47-.23-.09-.34-.55-.36-.84A1.69,1.69,0,0,0,43.53,28a1,1,0,0,1-.5-.8A30.09,30.09,0,0,1,43,24a1.62,1.62,0,0,0-1.23-1.66l-1.68-.64a40.93,40.93,0,0,0-2.2,4.73,12.58,12.58,0,0,0-.16,3.37c0,.17.09.36,0,.48-.19.28-.41.68-.72.75-.55.13-.78-.24-.77-.68,0-.84,0-1.67,0-2.51a6.61,6.61,0,0,0-.12-1.6,1.67,1.67,0,0,0-1.82-1.37,2.07,2.07,0,0,0-2,1.55,2.63,2.63,0,0,0,.1,1.11c1.07,3.46,1.24,7,1.68,10.55a6.53,6.53,0,0,0,1,2.73,21.49,21.49,0,0,1,2.94,5.76c.07.24.21.5.14.71a2.77,2.77,0,0,1-.52.74c-.31-.16-.78-.27-.89-.5-.43-.93-.72-1.9-1.11-2.84-.19-.48-.48-.93-.76-1.48a6.21,6.21,0,0,1-5.59-.11A9.38,9.38,0,0,1,26,39.26c-.08.05-.16.07-.17.12a8.67,8.67,0,0,1-4.66,5.2A43.92,43.92,0,0,0,17.24,47c-.4.26-.86.52-1.27.09s-.12-.78.36-1.08c1.78-1.09,3.55-2.21,5.34-3.3A5.8,5.8,0,0,0,24,40a18.49,18.49,0,0,0,1.32-8.91,9.64,9.64,0,0,1,2.25-6.63,8.89,8.89,0,0,0,1.5-2.83,2.66,2.66,0,0,0-.45-1.91c-.53-.88-1.29-.92-1.87-.07-.82,1.21-1.42,2.52-2.14,3.77-.87,1.5-1.73,3-2.66,4.45a3.16,3.16,0,0,1-1.2,1c-.25.13-.72,0-1.09-.08.06-.31,0-.67.19-.91A9.48,9.48,0,0,1,21,26.86a1.36,1.36,0,0,0,.45-1.56A7.06,7.06,0,0,1,21.18,24"/></g></g></svg>