<svg xmlns="http://www.w3.org/2000/svg" viewBox="0 0 37.02 40.75"><defs><style>.cls-1{fill:#098b77;}</style></defs><g id="Layer_2" data-name="Layer 2"><g id="Layer_1-2" data-name="Layer 1"><path class="cls-1" d="M12.13,16.23l.22,0a6.55,6.55,0,0,1,.37-.86,42.79,42.79,0,0,1,2.32-4A2.47,2.47,0,0,1,19,11.28a4.46,4.46,0,0,1,1,2.2,4.9,4.9,0,0,1-1.38,3.85c-1.71,2.1-2.76,4.35-2.35,7a7.88,7.88,0,0,1-.06,2.74c-.44,2.07.41,3.88,1.55,5.6a7.48,7.48,0,0,0,2,1.93,3.75,3.75,0,0,0,3.74.15A20.49,20.49,0,0,1,22.28,31a69.14,69.14,0,0,0-1.8-11.11c-.52-1.77.89-3.33,3.06-3.62a3.69,3.69,0,0,1,3.21,1.14c1.55-3.06,1.86-6,0-9a2.41,2.41,0,0,1-.38-1.28,9.06,9.06,0,0,0-.76-4.52c-.6-1.19-1.05-1.43-2.56-1.37s-2.13,1-1.52,2.08c.25.46.86,1.06,0,1.4s-1.07-.42-1.35-.9a1,1,0,0,0-1.66-.29.74.74,0,0,0-.12,1.21c.31.37.52.82-.09,1.12s-.95,0-1.23-.45a.73.73,0,0,0-1.28,0c-.2.29-.05.77,0,1.16s0,.67,0,1l-1.09-.13c-.25,0-.58-.15-.73-.06a1.3,1.3,0,0,0-.45.65c0,.09.12.24.15.36.05.28.2.63.06.81s-.6.12-.91.19-.69.13-.76.28c-.18.38-.4.88-.25,1.22a8,8,0,0,1,.32,3.67c0,.55,0,1.1,0,1.65m-1.44.51c-1,.53-2,1-2.89,1.48a1.92,1.92,0,0,0-1,1.92,15.1,15.1,0,0,1-1.12,7,6.58,6.58,0,0,1-4.28,3.91,1.74,1.74,0,0,1-.83.11,1,1,0,0,1-.61-.5.6.6,0,0,1,.3-.58c3.21-.84,4.11-3.1,4.61-5.48a19.94,19.94,0,0,0,.32-4.5A3.24,3.24,0,0,1,7.2,17C8.08,16.5,9,16,9.92,15.62c.53-.24.73-.53.67-1-.13-1.14-.19-2.29-.33-3.43a2.65,2.65,0,0,1,1.31-2.86A.88.88,0,0,0,12,7.82a2.41,2.41,0,0,1,1.49-1.68A1.19,1.19,0,0,0,14,5.48,2.49,2.49,0,0,1,16,3.8a1.55,1.55,0,0,0,.83-.55A3.05,3.05,0,0,1,19.1,2,1.43,1.43,0,0,0,20,1.51,3.68,3.68,0,0,1,23.36,0c1.46,0,2.7.31,3.37,1.58A11,11,0,0,1,28,6.6a7,7,0,0,0,.44,1.68c.41,1.4.87,2.8,1.2,4.21a1,1,0,0,0,.69.85,23.53,23.53,0,0,1,2.31,1,2.46,2.46,0,0,1,1.51,2.29c0,.48,0,1,0,1.45a2.79,2.79,0,0,0,.94,2.51,8.17,8.17,0,0,1,1.8,3.18,2.55,2.55,0,0,1-.2,1.65,18,18,0,0,0-.43,9.44,5.71,5.71,0,0,0,.59,1.35c.18.34.42.73-.18.84a1.34,1.34,0,0,1-1.07-.31,9,9,0,0,1-1-2.66,18.73,18.73,0,0,1,.74-9.35c.22-.62.3-1.13-.59-1.47-.23-.09-.33-.55-.36-.85A1.68,1.68,0,0,0,33,20.68a1,1,0,0,1-.5-.81c0-1.05,0-2.1,0-3.15a1.62,1.62,0,0,0-1.23-1.66l-1.67-.63a41,41,0,0,0-2.21,4.73,12.17,12.17,0,0,0-.15,3.37c0,.16.09.36,0,.48-.19.28-.41.67-.72.75-.54.13-.78-.24-.77-.69,0-.83,0-1.67,0-2.5A6.65,6.65,0,0,0,25.71,19a1.65,1.65,0,0,0-1.82-1.36,2.08,2.08,0,0,0-1.95,1.54,2.66,2.66,0,0,0,.1,1.12c1.07,3.46,1.25,7,1.68,10.54a6.53,6.53,0,0,0,1,2.74,21.49,21.49,0,0,1,2.94,5.76c.07.24.21.5.15.71a3.06,3.06,0,0,1-.53.74c-.31-.17-.78-.28-.89-.51-.42-.92-.72-1.89-1.11-2.83a16.17,16.17,0,0,0-.76-1.48,6.19,6.19,0,0,1-5.58-.12A9.25,9.25,0,0,1,15.51,32c-.07,0-.16.07-.17.11a8.66,8.66,0,0,1-4.66,5.21,43.09,43.09,0,0,0-3.93,2.46c-.4.25-.86.52-1.26.09s-.13-.79.35-1.08c1.78-1.1,3.55-2.22,5.34-3.3a5.85,5.85,0,0,0,2.31-2.72,18.4,18.4,0,0,0,1.32-8.92,9.64,9.64,0,0,1,2.26-6.62,9,9,0,0,0,1.49-2.83,2.61,2.61,0,0,0-.45-1.91c-.53-.89-1.29-.93-1.87-.07-.82,1.2-1.42,2.51-2.14,3.77-.87,1.49-1.72,3-2.66,4.45a3.25,3.25,0,0,1-1.2,1c-.25.13-.72-.05-1.09-.09.06-.3,0-.66.19-.9a9.69,9.69,0,0,1,1.13-1.08A1.36,1.36,0,0,0,10.91,18a8,8,0,0,1-.22-1.25"/></g></g></svg>