<svg xmlns="http://www.w3.org/2000/svg" viewBox="0 0 249.47 48.07"><defs><style>.cls-1{fill:#fff;}.cls-1,.cls-2{fill-rule:evenodd;}.cls-2{fill:#66a950;}</style></defs><g id="Layer_2" data-name="Layer 2"><g id="Layer_1-2" data-name="Layer 1"><path d="M76.67,16.52H81.1v2.17h.07A4.88,4.88,0,0,1,85.76,16c2.92,0,4.6,1.59,4.6,5.28V35.05H85.73V22.27c0-1.89-.6-2.58-2-2.58-1.64,0-2.45,1-2.45,3.06v12.3H76.67Z"/><path d="M106.14,16.52v17.6c0,4.92-2.12,7.27-7.52,7.27-3.93,0-6.14-1.8-6.14-5h4.43a1.68,1.68,0,0,0,.7,1.41,2.69,2.69,0,0,0,1.55.51c1.87,0,2.55-1.41,2.55-3.34V32.57h-.07a4.84,4.84,0,0,1-3.86,2.27c-3.66,0-5.54-2.62-5.54-9.37,0-4.34.67-9.44,5.67-9.44a4,4,0,0,1,3.73,2.55h.07V16.52Zm-7,14.67c2,0,2.52-2.17,2.52-5.3,0-4.52-.57-6.2-2.42-6.2-2.05,0-2.42,1.68-2.42,6.68,0,2.55.34,4.82,2.32,4.82"/><path d="M112.51,26.51V28c0,2.2.57,4.3,2.28,4.3s2.19-1.13,2.45-3.48h4.17c-.17,4.31-2.12,6.72-6.55,6.72-6.71,0-7-5.3-7-9.92,0-5,.94-9.58,7.18-9.58,5.41,0,6.61,3.72,6.61,9.41v1.07Zm4.73-2.83c-.1-2.82-.43-4.41-2.34-4.41s-2.39,1.93-2.39,3.69v.72Z"/><rect x="123.42" y="10.46" width="4.63" height="24.59"/><polygon points="137.92 10.46 145.1 10.46 148.52 27.81 148.59 27.81 152.05 10.46 159.19 10.46 159.19 35.05 154.76 35.05 154.76 15.41 154.7 15.41 150.44 35.05 146.68 35.05 142.41 15.41 142.35 15.41 142.35 35.05 137.92 35.05 137.92 10.46"/><path d="M161.64,22.2v-.45c0-4.27,2.86-5.71,6.35-5.71,5.5,0,6.54,2.34,6.54,5.68v9.75a8.15,8.15,0,0,0,.57,3.58h-4.43a8,8,0,0,1-.57-1.93H170c-1.07,1.93-2.35,2.41-4.59,2.41-3.23,0-4.37-2.82-4.37-5.3,0-3.52,1.38-4.9,4.57-5.79l2.62-.72c1.37-.38,1.84-.93,1.84-2.17,0-1.42-.57-2.28-2.15-2.28s-2.14.93-2.14,2.41v.52Zm8.46,3.58a5.11,5.11,0,0,1-2,.93c-1.88.42-2.62,1.35-2.62,3,0,1.41.51,2.58,1.75,2.58a2.74,2.74,0,0,0,2.85-2.86Z"/><path d="M180.37,29v.62c0,1.62.84,2.68,2.42,2.68a2.05,2.05,0,0,0,2.34-2.2c0-1.21-.77-1.72-1.67-2.1l-3.26-1.21c-2.55-.93-3.86-2.55-3.86-5.17,0-3,1.92-5.58,6.65-5.58,4.19,0,6.17,1.93,6.17,5.28v.75H185c0-1.89-.54-2.79-2.05-2.79a2,2,0,0,0-2.18,2c0,.93.44,1.65,2,2.17l2.78,1c2.92,1,4,2.51,4,5.3,0,3.89-2.82,5.82-6.72,5.82-5.23,0-6.64-2.31-6.64-5.89V29Z"/><path d="M194.43,29v.62c0,1.62.84,2.68,2.42,2.68a2.06,2.06,0,0,0,2.35-2.2c0-1.21-.78-1.72-1.68-2.1l-3.26-1.21c-2.55-.93-3.86-2.55-3.86-5.17,0-3,1.92-5.58,6.65-5.58,4.19,0,6.17,1.93,6.17,5.28v.75h-4.16c0-1.89-.53-2.79-2-2.79a2,2,0,0,0-2.19,2c0,.93.44,1.65,2,2.17l2.78,1c2.92,1,4,2.51,4,5.3,0,3.89-2.82,5.82-6.72,5.82-5.23,0-6.64-2.31-6.64-5.89V29Z"/><path d="M205.07,22.2v-.45c0-4.27,2.85-5.71,6.34-5.71,5.51,0,6.55,2.34,6.55,5.68v9.75a8.15,8.15,0,0,0,.57,3.58H214.1a7.15,7.15,0,0,1-.57-1.93h-.07c-1.07,1.93-2.35,2.41-4.6,2.41-3.22,0-4.36-2.82-4.36-5.3,0-3.52,1.37-4.9,4.56-5.79l2.62-.72c1.38-.38,1.85-.93,1.85-2.17,0-1.42-.57-2.28-2.15-2.28s-2.15.93-2.15,2.41v.52Zm8.46,3.58a5.11,5.11,0,0,1-2,.93c-1.88.42-2.62,1.35-2.62,3,0,1.41.5,2.58,1.74,2.58a2.74,2.74,0,0,0,2.86-2.86Z"/><path d="M233.93,16.52v17.6c0,4.92-2.11,7.27-7.52,7.27-3.92,0-6.14-1.8-6.14-5h4.43a1.69,1.69,0,0,0,.71,1.41,2.66,2.66,0,0,0,1.54.51c1.88,0,2.55-1.41,2.55-3.34V32.57h-.07a4.84,4.84,0,0,1-3.86,2.27c-3.65,0-5.53-2.62-5.53-9.37,0-4.34.67-9.44,5.67-9.44a4,4,0,0,1,3.72,2.55h.07V16.52Zm-7,14.67c2,0,2.52-2.17,2.52-5.3,0-4.52-.57-6.2-2.42-6.2-2,0-2.41,1.68-2.41,6.68,0,2.55.33,4.82,2.31,4.82"/><path d="M240.31,26.51V28c0,2.2.57,4.3,2.28,4.3s2.18-1.13,2.45-3.48h4.16c-.17,4.31-2.11,6.72-6.54,6.72-6.72,0-7-5.3-7-9.92,0-5,.94-9.58,7.18-9.58,5.4,0,6.61,3.72,6.61,9.41v1.07ZM245,23.68c-.1-2.82-.44-4.41-2.35-4.41s-2.38,1.93-2.38,3.69v.72Z"/><path d="M63.65,10.45h6L76,35.05h-5l-1.11-5.2H63.45l-1.11,5.2h-5Zm.64,15.33H69l-2.31-11H66.6Z"/><path class="cls-1" d="M37.59,40.06c-.68-.31-1.58.3-2,1.36s-.22,2.17.47,2.48,1.58-.3,2-1.36.21-2.17-.47-2.48"/><path class="cls-2" d="M24,0a24,24,0,1,0,24,24A24,24,0,0,0,24,0"/><path class="cls-1" d="M23.12,8.67a6.11,6.11,0,1,0-5.71,6.49,6.1,6.1,0,0,0,5.71-6.49"/><path class="cls-1" d="M13.57,21.29a6.34,6.34,0,0,1-.81-5A4.06,4.06,0,0,1,11,15a4.75,4.75,0,0,1-.64-2.28A6.46,6.46,0,0,0,7.47,14.7c-.58.82-3.08,5.38,4.32,9.75a15,15,0,0,0,7.53,1.62s-4.12-1.92-5.75-4.78"/><path class="cls-1" d="M29.46,7.58a12.38,12.38,0,0,0-5.72-3A8.3,8.3,0,0,1,24.81,7a6.57,6.57,0,0,1,0,2.35,5.6,5.6,0,0,1,.71,4.54c-.61,3-4,7.11-4,7.11s4.54-1.58,6.93-4.08c2.69-2.81,3-7.25,1-9.29"/><path class="cls-1" d="M21,38.65c-1-.65-2.59.07-3.54,1.61s-.91,3.36.11,4,2.62-.08,3.56-1.64.88-3.33-.13-4"/><path class="cls-1" d="M26,41.36c-.74-.49-1.91,0-2.61,1.19s-.67,2.48.08,3,1.92-.05,2.62-1.2.65-2.47-.09-3"/><path class="cls-1" d="M30.57,41.29c-.75-.38-1.79.25-2.32,1.41s-.36,2.43.39,2.81,1.8-.27,2.33-1.44.35-2.4-.4-2.78"/><path class="cls-1" d="M13.41,33a14.93,14.93,0,0,0-5.07,2.69A13.44,13.44,0,0,1,12.44,33a25.86,25.86,0,0,1,5.93-1.37s-5.17-2.67-9.17-.9c-4.52,2-7.48,8.34-7.48,8.34a5.24,5.24,0,0,1,2.66-.61,11.76,11.76,0,0,1,3.48.93s3.68,1.35,6.27,0c3.28-1.68,5.19-6.62,5.19-6.62a18.68,18.68,0,0,0-5.91.22"/><path class="cls-1" d="M42.53,14.37s1.43,8-1.92,12.82c-5.1,7.28-12.25,7.35-11.83,2.49.33-3.78,3.64-6.11,6.51-9.56C38,16.83,40.44,14,40.93,11.63a22.12,22.12,0,0,0-.32-8.41s1.42,7.45-4,11.32C25.72,22.24,21,24,20.94,30.84c-.05,3.8,3.75,10.86,14.05,7,8.07-3,9.12-12.75,9.2-15a26,26,0,0,0-1.66-8.48"/></g></g></svg>