<svg xmlns="http://www.w3.org/2000/svg" viewBox="0 0 36.69 40.35"><defs><style>.cls-1{fill:#098b77;}</style></defs><g id="Layer_2" data-name="Layer 2"><g id="Layer_1-2" data-name="Layer 1"><path class="cls-1" d="M19.81,18.81H16.14c.26.52,2.92.6,3.67,0m-.61-7.24V9.88c0-.88,0-1.76,0-2.64a1.39,1.39,0,0,0-1.26-1.36,1.29,1.29,0,0,0-1.32,1.18c-.05,1.49,0,3,0,4.51Zm-4.73,2.11v3c2.19,0,4.33,0,6.47,0a.57.57,0,0,0,.39-.39c0-.85,0-1.7,0-2.6Zm2.46,7.61c-1.08,0-2.07-.05-3,0a1.75,1.75,0,0,0-1.48,1.83c0,.43,0,.87,0,1.37H10.57a5.23,5.23,0,0,1,.65-3.69,4.27,4.27,0,0,1,3.23-1.72,3.83,3.83,0,0,0-.56-.41,1.79,1.79,0,0,1-1.35-2v-3c0-1.32.54-1.92,1.78-2l.38-.07V7.28a3.26,3.26,0,0,1,1.84-3.09,2.87,2.87,0,0,1,3.4.48,3.41,3.41,0,0,1,1.14,2.67v4.13a6.69,6.69,0,0,1,1.37.43,1.75,1.75,0,0,1,.79,1.64c0,1,0,2,0,3a1.83,1.83,0,0,1-1.41,2.12,4.32,4.32,0,0,0-.46.3,4.48,4.48,0,0,0,.74.26,3.77,3.77,0,0,1,3.15,3.86c0,5.1,0,10.19,0,15.28a1.71,1.71,0,0,1-1.82,1.92H11.18a3.17,3.17,0,0,1-2.79-1.5c-.18-.27-.38-.52-.62-.86-.3.4-.54.75-.8,1.08a2.91,2.91,0,0,1-4.27.63A3.44,3.44,0,0,1,2.11,35c.4-.59.82-1.15,1.31-1.82L4.9,34.44,3.75,36.07a1.38,1.38,0,0,0,0,1.94c.58.51,1.25.37,1.81-.38.3-.4.59-.82.88-1.23.81-1.13,1.76-1.14,2.55,0,.34.47.66,1,1,1.41a1.05,1.05,0,0,0,1.42.38,1.17,1.17,0,0,0,.62-1.48.64.64,0,0,1,.29-.83c.33-.25.64-.52,1-.78.7.81.82,1.51.55,3.17h9.43c0-.25,0-.47,0-.7,0-4.65,0-9.3,0-14,0-1.7-.6-2.34-2.19-2.35H18.83V31.44a5,5,0,0,1,0,.55c-.05.61-.31,1.05-.94,1s-.9-.41-.94-1c0-.21,0-.42,0-.63V21.29Z"/><path class="cls-1" d="M19.81,18.81H16.14C16.4,19.33,19.06,19.41,19.81,18.81Zm-.61-7.24V9.88c0-.88,0-1.76,0-2.64a1.39,1.39,0,0,0-1.26-1.36,1.29,1.29,0,0,0-1.32,1.18c-.05,1.49,0,3,0,4.51Zm-4.73,2.11v3c2.19,0,4.33,0,6.47,0a.57.57,0,0,0,.39-.39c0-.85,0-1.7,0-2.6Zm2.46,7.61c-1.08,0-2.07-.05-3,0a1.75,1.75,0,0,0-1.48,1.83c0,.43,0,.87,0,1.37H10.57a5.23,5.23,0,0,1,.65-3.69,4.27,4.27,0,0,1,3.23-1.72,3.83,3.83,0,0,0-.56-.41,1.79,1.79,0,0,1-1.35-2v-3c0-1.32.54-1.92,1.78-2l.38-.07V7.28a3.26,3.26,0,0,1,1.84-3.09,2.87,2.87,0,0,1,3.4.48,3.41,3.41,0,0,1,1.14,2.67v4.13a6.69,6.69,0,0,1,1.37.43,1.75,1.75,0,0,1,.79,1.64c0,1,0,2,0,3a1.83,1.83,0,0,1-1.41,2.12,4.32,4.32,0,0,0-.46.3,4.48,4.48,0,0,0,.74.26,3.77,3.77,0,0,1,3.15,3.86c0,5.1,0,10.19,0,15.28a1.71,1.71,0,0,1-1.82,1.92H11.18a3.17,3.17,0,0,1-2.79-1.5c-.18-.27-.38-.52-.62-.86-.3.4-.54.75-.8,1.08a2.91,2.91,0,0,1-4.27.63A3.44,3.44,0,0,1,2.11,35c.4-.59.82-1.15,1.31-1.82L4.9,34.44,3.75,36.07a1.38,1.38,0,0,0,0,1.94c.58.51,1.25.37,1.81-.38.3-.4.59-.82.88-1.23.81-1.13,1.76-1.14,2.55,0,.34.47.66,1,1,1.41a1.05,1.05,0,0,0,1.42.38,1.17,1.17,0,0,0,.62-1.48.64.64,0,0,1,.29-.83c.33-.25.64-.52,1-.78.7.81.82,1.51.55,3.17h9.43c0-.25,0-.47,0-.7,0-4.65,0-9.3,0-14,0-1.7-.6-2.34-2.19-2.35H18.83V31.44a5,5,0,0,1,0,.55c-.05.61-.31,1.05-.94,1s-.9-.41-.94-1c0-.21,0-.42,0-.63V21.29Z"/><path class="cls-1" d="M24.23,10.53l-1.66-1C24.4,6.32,26.19,3.17,28,0c.17.11.25.13.28.18a84.71,84.71,0,0,1,7.58,14.47c1.38,3.6,1.08,6.93-1.27,9.93a8.06,8.06,0,0,1-6.41,3.19V25.82l1.22-.21c3.78-.72,6.42-5.16,5.06-9.22a61.25,61.25,0,0,0-4.69-10c-.5-.9-1-1.79-1.65-2.86l-3.89,7"/><path class="cls-1" d="M24.23,10.53l-1.66-1C24.4,6.32,26.19,3.17,28,0c.17.11.25.13.28.18a84.71,84.71,0,0,1,7.58,14.47c1.38,3.6,1.08,6.93-1.27,9.93a8.06,8.06,0,0,1-6.41,3.19V25.82l1.22-.21c3.78-.72,6.42-5.16,5.06-9.22a61.25,61.25,0,0,0-4.69-10c-.5-.9-1-1.79-1.65-2.86Z"/><path class="cls-1" d="M11.13,27.45l.51-.18a3,3,0,0,1,3.86,1.81,3.24,3.24,0,0,1-1.63,4.17c-.66.3-1.34.54-2.09.84l-.67-1.85,1.73-.68c.84-.35,1.19-1,.94-1.67s-.87-1-1.72-.67c-.69.24-1.35.53-2.05.73s-1,.06-1-.8,0-1.52,0-2.28a1.23,1.23,0,0,0-1.09-1.35c-.65,0-1.16.49-1.25,1.3l-.31,2.94c-.9-.18-1.74-.34-2.57-.54s-1.36-.31-1.76.49,0,1.35.59,1.82c-.22.59-.42,1.15-.63,1.7a3,3,0,0,1-1.94-3.5,2.65,2.65,0,0,1,1.73-2.32,14.45,14.45,0,0,1,3-.28c.06-2.06,1-3.55,3.3-3.58a2.43,2.43,0,0,1,2.23,1.31,16.73,16.73,0,0,1,.86,2.59"/><path class="cls-1" d="M11.13,27.45l.51-.18a3,3,0,0,1,3.86,1.81,3.24,3.24,0,0,1-1.63,4.17c-.66.3-1.34.54-2.09.84l-.67-1.85,1.73-.68c.84-.35,1.19-1,.94-1.67s-.87-1-1.72-.67c-.69.24-1.35.53-2.05.73s-1,.06-1-.8,0-1.52,0-2.28a1.23,1.23,0,0,0-1.09-1.35c-.65,0-1.16.49-1.25,1.3l-.31,2.94c-.9-.18-1.74-.34-2.57-.54s-1.36-.31-1.76.49,0,1.35.59,1.82c-.22.59-.42,1.15-.63,1.7a3,3,0,0,1-1.94-3.5,2.65,2.65,0,0,1,1.73-2.32,14.45,14.45,0,0,1,3-.28c.06-2.06,1-3.55,3.3-3.58a2.43,2.43,0,0,1,2.23,1.31A16.73,16.73,0,0,1,11.13,27.45Z"/><path class="cls-1" d="M8.37,32.87c0-.12,0-.23,0-.35-.28-.17-.59-.52-.83-.47s-.45.48-.68.74c.25.24.49.65.75.67s.51-.38.77-.59m-3.32-.11a2.59,2.59,0,0,1,2.49-2.71,2.58,2.58,0,0,1,2.53,2.73,2.67,2.67,0,0,1-2.52,2.71,2.67,2.67,0,0,1-2.5-2.73"/><path class="cls-1" d="M8.37,32.87c0-.12,0-.23,0-.35-.28-.17-.59-.52-.83-.47s-.45.48-.68.74c.25.24.49.65.75.67S8.11,33.08,8.37,32.87Zm-3.32-.11a2.59,2.59,0,0,1,2.49-2.71,2.58,2.58,0,0,1,2.53,2.73,2.67,2.67,0,0,1-2.52,2.71A2.67,2.67,0,0,1,5.05,32.76Z"/><path class="cls-1" d="M33.74,18.69C34,21.8,31,24.94,28.21,24.55c0-.47,0-1,0-1.45a.53.53,0,0,1,.29-.39c2.16-.34,3.23-1.76,3.52-4Z"/><path class="cls-1" d="M33.74,18.69C34,21.8,31,24.94,28.21,24.55c0-.47,0-1,0-1.45a.53.53,0,0,1,.29-.39c2.16-.34,3.23-1.76,3.52-4Z"/></g></g></svg>