<svg xmlns="http://www.w3.org/2000/svg" viewBox="0 0 58 58"><defs><style>.cls-1{fill:#098b77;}.cls-2{fill:#fff;}.cls-3,.cls-4{fill:none;stroke:#098b77;stroke-miterlimit:10;}.cls-3{stroke-width:0.25px;}.cls-4{stroke-width:0.28px;}</style></defs><g id="Layer_2" data-name="Layer 2"><g id="Layer_1-2" data-name="Layer 1"><path class="cls-1" d="M29,58A29,29,0,1,0,0,29,29,29,0,0,0,29,58"/><path class="cls-2" d="M30.47,27.34H26.79c.27.51,2.92.6,3.68,0m-.61-7.24V18.4c0-.88,0-1.76,0-2.64a1.36,1.36,0,0,0-1.26-1.35,1.3,1.3,0,0,0-1.32,1.18c-.05,1.49,0,3,0,4.51Zm-4.74,2.11v3c2.19,0,4.34,0,6.48,0A.57.57,0,0,0,32,24.8c0-.84,0-1.69,0-2.59Zm2.47,7.61c-1.09,0-2.07-.06-3.06,0a1.76,1.76,0,0,0-1.47,1.83c0,.44,0,.87,0,1.37H21.23a5.2,5.2,0,0,1,.65-3.68,4.24,4.24,0,0,1,3.23-1.72,3.6,3.6,0,0,0-.56-.41,1.79,1.79,0,0,1-1.35-2c0-1,0-2,0-3,0-1.33.53-1.92,1.78-2l.38-.06c0-1.42,0-2.84,0-4.26a3.25,3.25,0,0,1,1.84-3.1,2.87,2.87,0,0,1,3.39.49,3.36,3.36,0,0,1,1.14,2.66V20a6.92,6.92,0,0,1,1.37.43,1.75,1.75,0,0,1,.79,1.65c0,1,0,2,0,3a1.84,1.84,0,0,1-1.41,2.12,3.05,3.05,0,0,0-.46.29,5.07,5.07,0,0,0,.74.27,3.76,3.76,0,0,1,3.14,3.86c0,5.09,0,10.18,0,15.27a1.72,1.72,0,0,1-1.82,1.93H21.84a3.14,3.14,0,0,1-2.8-1.5c-.18-.27-.37-.52-.61-.86-.3.41-.54.75-.8,1.09a2.92,2.92,0,0,1-4.27.62,3.44,3.44,0,0,1-.59-4.64c.39-.58.82-1.15,1.31-1.82L15.56,43l-1.15,1.63a1.39,1.39,0,0,0,0,1.94c.59.51,1.25.38,1.81-.38.3-.4.6-.81.89-1.23.81-1.13,1.76-1.13,2.55,0,.33.47.66,1,1,1.41a1.05,1.05,0,0,0,1.42.38,1.17,1.17,0,0,0,.62-1.48.63.63,0,0,1,.28-.83c.33-.25.65-.52,1-.77.71.8.82,1.51.56,3.16H34c0-.24,0-.47,0-.69v-14c0-1.71-.61-2.35-2.19-2.35H29.49V40a5,5,0,0,1,0,.55c-.05.62-.31,1.05-.94,1s-.91-.41-.94-1c0-.21,0-.42,0-.62V29.82Z"/><path class="cls-3" d="M30.47,27.34H26.79C27.06,27.85,29.71,27.94,30.47,27.34Zm-.61-7.24V18.4c0-.88,0-1.76,0-2.64a1.36,1.36,0,0,0-1.26-1.35,1.3,1.3,0,0,0-1.32,1.18c-.05,1.49,0,3,0,4.51Zm-4.74,2.11v3c2.19,0,4.34,0,6.48,0A.57.57,0,0,0,32,24.8c0-.84,0-1.69,0-2.59Zm2.47,7.61c-1.09,0-2.07-.06-3.06,0a1.76,1.76,0,0,0-1.47,1.83c0,.44,0,.87,0,1.37H21.23a5.2,5.2,0,0,1,.65-3.68,4.24,4.24,0,0,1,3.23-1.72,3.6,3.6,0,0,0-.56-.41,1.79,1.79,0,0,1-1.35-2c0-1,0-2,0-3,0-1.33.53-1.92,1.78-2l.38-.06c0-1.42,0-2.84,0-4.26a3.25,3.25,0,0,1,1.84-3.1,2.87,2.87,0,0,1,3.39.49,3.36,3.36,0,0,1,1.14,2.66V20a6.92,6.92,0,0,1,1.37.43,1.75,1.75,0,0,1,.79,1.65c0,1,0,2,0,3a1.84,1.84,0,0,1-1.41,2.12,3.05,3.05,0,0,0-.46.29,5.07,5.07,0,0,0,.74.27,3.76,3.76,0,0,1,3.14,3.86c0,5.09,0,10.18,0,15.27a1.72,1.72,0,0,1-1.82,1.93H21.84a3.14,3.14,0,0,1-2.8-1.5c-.18-.27-.37-.52-.61-.86-.3.41-.54.75-.8,1.09a2.92,2.92,0,0,1-4.27.62,3.44,3.44,0,0,1-.59-4.64c.39-.58.82-1.15,1.31-1.82L15.56,43l-1.15,1.63a1.39,1.39,0,0,0,0,1.94c.59.51,1.25.38,1.81-.38.3-.4.6-.81.89-1.23.81-1.13,1.76-1.13,2.55,0,.33.47.66,1,1,1.41a1.05,1.05,0,0,0,1.42.38,1.17,1.17,0,0,0,.62-1.48.63.63,0,0,1,.28-.83c.33-.25.65-.52,1-.77.71.8.82,1.51.56,3.16H34c0-.24,0-.47,0-.69v-14c0-1.71-.61-2.35-2.19-2.35H29.49V40a5,5,0,0,1,0,.55c-.05.62-.31,1.05-.94,1s-.91-.41-.94-1c0-.21,0-.42,0-.62V29.82Z"/><path class="cls-2" d="M34.88,19.06l-1.66-1c1.84-3.22,3.63-6.38,5.43-9.55.17.11.25.13.29.19a84.25,84.25,0,0,1,7.58,14.46c1.37,3.6,1.08,6.94-1.28,9.93a8,8,0,0,1-6.4,3.19V34.34l1.22-.21c3.78-.72,6.42-5.16,5.06-9.22a60.86,60.86,0,0,0-4.7-10c-.5-.9-1-1.78-1.65-2.85-1.32,2.39-2.58,4.65-3.89,7"/><path class="cls-3" d="M34.88,19.06l-1.66-1c1.84-3.22,3.63-6.38,5.43-9.55.17.11.25.13.29.19a84.25,84.25,0,0,1,7.58,14.46c1.37,3.6,1.08,6.94-1.28,9.93a8,8,0,0,1-6.4,3.19V34.34l1.22-.21c3.78-.72,6.42-5.16,5.06-9.22a60.86,60.86,0,0,0-4.7-10c-.5-.9-1-1.78-1.65-2.85C37.45,14.45,36.19,16.71,34.88,19.06Z"/><path class="cls-2" d="M21.78,36l.52-.18a3,3,0,0,1,3.86,1.82,3.23,3.23,0,0,1-1.63,4.16c-.66.3-1.34.54-2.09.84l-.67-1.84,1.72-.69c.85-.35,1.2-1,1-1.67s-.87-1-1.73-.67c-.68.25-1.35.53-2,.73s-1,.07-1-.79,0-1.52,0-2.28A1.25,1.25,0,0,0,18.58,34c-.65,0-1.16.5-1.25,1.3L17,38.29c-.9-.19-1.74-.34-2.57-.55s-1.36-.31-1.77.5,0,1.34.6,1.82c-.22.58-.43,1.14-.63,1.69a3,3,0,0,1-2-3.49,2.69,2.69,0,0,1,1.74-2.33,15.16,15.16,0,0,1,3-.28c.07-2.06,1-3.54,3.3-3.57a2.44,2.44,0,0,1,2.24,1.3A16.39,16.39,0,0,1,21.78,36"/><path class="cls-3" d="M21.78,36l.52-.18a3,3,0,0,1,3.86,1.82,3.23,3.23,0,0,1-1.63,4.16c-.66.3-1.34.54-2.09.84l-.67-1.84,1.72-.69c.85-.35,1.2-1,1-1.67s-.87-1-1.73-.67c-.68.25-1.35.53-2,.73s-1,.07-1-.79,0-1.52,0-2.28A1.25,1.25,0,0,0,18.58,34c-.65,0-1.16.5-1.25,1.3L17,38.29c-.9-.19-1.74-.34-2.57-.55s-1.36-.31-1.77.5,0,1.34.6,1.82c-.22.58-.43,1.14-.63,1.69a3,3,0,0,1-2-3.49,2.69,2.69,0,0,1,1.74-2.33,15.16,15.16,0,0,1,3-.28c.07-2.06,1-3.54,3.3-3.57a2.44,2.44,0,0,1,2.24,1.3A16.39,16.39,0,0,1,21.78,36Z"/><path class="cls-2" d="M19,41.39c0-.11,0-.23,0-.34-.27-.18-.58-.53-.82-.48s-.46.48-.68.74c.25.24.48.65.75.68s.51-.38.77-.6m-3.33-.1a2.52,2.52,0,1,1,5,0A2.67,2.67,0,0,1,18.21,44a2.69,2.69,0,0,1-2.51-2.72"/><path class="cls-4" d="M19,41.39c0-.11,0-.23,0-.34-.27-.18-.58-.53-.82-.48s-.46.48-.68.74c.25.24.48.65.75.68S18.77,41.61,19,41.39Zm-3.33-.1a2.52,2.52,0,1,1,5,0A2.67,2.67,0,0,1,18.21,44,2.69,2.69,0,0,1,15.7,41.29Z"/><path class="cls-2" d="M44.4,27.22c.2,3.1-2.74,6.24-5.53,5.85,0-.47,0-1,0-1.45,0-.14.18-.37.3-.39,2.15-.33,3.23-1.75,3.52-4Z"/><path class="cls-3" d="M44.4,27.22c.2,3.1-2.74,6.24-5.53,5.85,0-.47,0-1,0-1.45,0-.14.18-.37.3-.39,2.15-.33,3.23-1.75,3.52-4Z"/></g></g></svg>