<svg xmlns="http://www.w3.org/2000/svg" viewBox="0 0 192.16 129.79"><defs><style>.cls-1{fill:#fff;}.cls-1,.cls-2{fill-rule:evenodd;}.cls-2{fill:#66a950;}</style></defs><g id="Layer_2" data-name="Layer 2"><g id="Layer_1-2" data-name="Layer 1"><path d="M19.36,104.92h4.43v2.17h.07a4.89,4.89,0,0,1,4.6-2.65c2.92,0,4.6,1.58,4.6,5.27v13.74H28.42V110.67c0-1.89-.6-2.58-2-2.58-1.65,0-2.45,1-2.45,3.06v12.3H19.36Z"/><path d="M48.83,104.92v17.6c0,4.93-2.11,7.27-7.52,7.27-3.92,0-6.14-1.79-6.14-5H39.6a1.67,1.67,0,0,0,.71,1.41,2.66,2.66,0,0,0,1.54.52c1.88,0,2.55-1.41,2.55-3.34V121h-.07a4.84,4.84,0,0,1-3.86,2.27c-3.65,0-5.53-2.61-5.53-9.36,0-4.34.67-9.44,5.67-9.44A4,4,0,0,1,44.33,107h.07v-2.07Zm-6.95,14.67c2,0,2.52-2.17,2.52-5.3,0-4.51-.57-6.2-2.42-6.2-2,0-2.41,1.69-2.41,6.68,0,2.55.33,4.82,2.31,4.82"/><path d="M55.21,114.91v1.48c0,2.2.57,4.31,2.28,4.31s2.18-1.14,2.45-3.48H64.1c-.17,4.3-2.11,6.71-6.54,6.71-6.72,0-7-5.3-7-9.92,0-5,.94-9.57,7.18-9.57,5.4,0,6.61,3.72,6.61,9.4v1.07Zm4.73-2.83c-.1-2.82-.44-4.4-2.35-4.4s-2.38,1.92-2.38,3.68v.72Z"/><rect x="66.11" y="98.86" width="4.63" height="24.59"/><polygon points="80.61 98.86 87.79 98.86 91.22 116.22 91.28 116.22 94.74 98.86 101.89 98.86 101.89 123.45 97.46 123.45 97.46 103.82 97.39 103.82 93.13 123.45 89.37 123.45 85.11 103.82 85.04 103.82 85.04 123.45 80.61 123.45 80.61 98.86"/><path d="M104.34,110.6v-.44c0-4.28,2.85-5.72,6.34-5.72,5.5,0,6.55,2.34,6.55,5.68v9.75a8.12,8.12,0,0,0,.57,3.58h-4.43a7,7,0,0,1-.57-1.93h-.07c-1.08,1.93-2.35,2.41-4.6,2.41-3.22,0-4.36-2.82-4.36-5.3,0-3.51,1.37-4.89,4.56-5.79l2.62-.72c1.38-.38,1.85-.93,1.85-2.17,0-1.41-.58-2.28-2.15-2.28s-2.15.94-2.15,2.42v.51Zm8.46,3.59a5.22,5.22,0,0,1-2,.93c-1.87.41-2.61,1.34-2.61,3,0,1.41.5,2.59,1.74,2.59a2.76,2.76,0,0,0,2.86-2.86Z"/><path d="M123.06,117.39V118c0,1.62.84,2.69,2.42,2.69a2.07,2.07,0,0,0,2.35-2.21c0-1.2-.77-1.72-1.68-2.1l-3.25-1.21c-2.55-.93-3.86-2.54-3.86-5.16,0-3,1.91-5.58,6.64-5.58,4.2,0,6.18,1.93,6.18,5.27v.76H127.7c0-1.9-.54-2.79-2-2.79a2,2,0,0,0-2.18,2c0,.93.43,1.66,2,2.17l2.79,1c2.92,1,4,2.51,4,5.3,0,3.89-2.82,5.82-6.71,5.82-5.24,0-6.65-2.3-6.65-5.89v-.65Z"/><path d="M137.13,117.39V118c0,1.62.83,2.69,2.41,2.69a2.07,2.07,0,0,0,2.35-2.21c0-1.2-.77-1.72-1.68-2.1L137,115.18c-2.55-.93-3.86-2.54-3.86-5.16,0-3,1.91-5.58,6.64-5.58,4.2,0,6.18,1.93,6.18,5.27v.76h-4.16c0-1.9-.54-2.79-2-2.79a2,2,0,0,0-2.18,2c0,.93.43,1.66,2,2.17l2.79,1c2.92,1,4,2.51,4,5.3,0,3.89-2.82,5.82-6.71,5.82-5.24,0-6.65-2.3-6.65-5.89v-.65Z"/><path d="M147.76,110.6v-.44c0-4.28,2.86-5.72,6.35-5.72,5.5,0,6.54,2.34,6.54,5.68v9.75a8.12,8.12,0,0,0,.57,3.58h-4.43a7.3,7.3,0,0,1-.57-1.93h-.07c-1.07,1.93-2.35,2.41-4.59,2.41-3.23,0-4.37-2.82-4.37-5.3,0-3.51,1.38-4.89,4.57-5.79l2.62-.72c1.37-.38,1.84-.93,1.84-2.17,0-1.41-.57-2.28-2.15-2.28s-2.14.94-2.14,2.42v.51Zm8.46,3.59a5.26,5.26,0,0,1-2,.93c-1.88.41-2.62,1.34-2.62,3,0,1.41.51,2.59,1.75,2.59a2.75,2.75,0,0,0,2.85-2.86Z"/><path d="M176.62,104.92v17.6c0,4.93-2.11,7.27-7.51,7.27-3.93,0-6.14-1.79-6.14-5h4.43a1.66,1.66,0,0,0,.7,1.41,2.69,2.69,0,0,0,1.54.52c1.88,0,2.56-1.41,2.56-3.34V121h-.07a4.84,4.84,0,0,1-3.86,2.27c-3.66,0-5.54-2.61-5.54-9.36,0-4.34.67-9.44,5.67-9.44a4,4,0,0,1,3.73,2.55h.07v-2.07Zm-6.94,14.67c2,0,2.52-2.17,2.52-5.3,0-4.51-.58-6.2-2.42-6.2-2.05,0-2.42,1.69-2.42,6.68,0,2.55.34,4.82,2.32,4.82"/><path d="M183,114.91v1.48c0,2.2.57,4.31,2.28,4.31s2.18-1.14,2.45-3.48h4.17c-.17,4.3-2.12,6.71-6.55,6.71-6.71,0-7-5.3-7-9.92,0-5,.94-9.57,7.18-9.57,5.41,0,6.61,3.72,6.61,9.4v1.07Zm4.73-2.83c-.1-2.82-.43-4.4-2.35-4.4S183,109.6,183,111.36v.72Z"/><path d="M6.34,98.86h6l6.34,24.59h-5l-1.11-5.2H6.14L5,123.45H0ZM7,114.19h4.7L9.36,103.13H9.3Z"/><path class="cls-1" d="M116.88,61.48c-1-.48-2.43.45-3.08,2.07s-.34,3.34.72,3.82,2.43-.47,3.08-2.1.32-3.32-.72-3.79"/><path class="cls-2" d="M96.08,0A36.89,36.89,0,1,0,133,36.88,36.88,36.88,0,0,0,96.08,0"/><path class="cls-1" d="M94.68,13.31a9.38,9.38,0,1,0-8.76,10,9.38,9.38,0,0,0,8.76-10"/><path class="cls-1" d="M80,32.66C77.58,28.37,78.79,25,78.79,25a6.28,6.28,0,0,1-2.67-2,7.33,7.33,0,0,1-1-3.51s-3.08,1-4.49,3c-.89,1.26-4.72,8.26,6.63,15C82.19,40.43,88.85,40,88.85,40S82.53,37.06,80,32.66"/><path class="cls-1" d="M104.41,11.63A19,19,0,0,0,95.64,7a12.8,12.8,0,0,1,1.63,3.67,9.94,9.94,0,0,1,0,3.6s2,2.46,1.09,7-6.1,10.9-6.1,10.9,7-2.42,10.63-6.25c4.13-4.31,4.55-11.13,1.5-14.26"/><path class="cls-1" d="M91.47,59.31c-1.54-1-4,.1-5.43,2.47s-1.39,5.15.17,6.16,4-.13,5.46-2.53,1.35-5.1-.2-6.1"/><path class="cls-1" d="M99.07,63.47c-1.14-.75-2.93.06-4,1.82s-1,3.81.12,4.57,2.95-.08,4-1.85,1-3.79-.13-4.54"/><path class="cls-1" d="M106.11,63.36c-1.15-.58-2.74.38-3.56,2.17s-.55,3.72.6,4.3,2.76-.41,3.57-2.2.53-3.69-.61-4.27"/><path class="cls-1" d="M79.78,50.61A22.74,22.74,0,0,0,72,54.74a20.8,20.8,0,0,1,6.29-4.14,39.5,39.5,0,0,1,9.09-2.09s-7.92-4.1-14.06-1.39c-6.94,3.07-11.47,12.8-11.47,12.8A8,8,0,0,1,65.92,59a18.4,18.4,0,0,1,5.34,1.44s5.64,2.07,9.63,0c5-2.59,8-10.17,8-10.17s-5.53-.68-9.06.34"/><path class="cls-1" d="M124.46,22.06s2.2,12.3-2.95,19.66C113.69,52.9,102.72,53,103.36,45.54c.5-5.79,5.59-9.37,10-14.67,4.2-5.05,7.9-9.47,8.66-13,1.24-5.88-.49-12.9-.49-12.9s2.18,11.44-6.19,17.38c-16.66,11.8-23.86,14.56-24,25C91.25,53.15,97.08,64,112.9,58.08c12.37-4.62,14-19.56,14.1-23,.21-5.87-2.54-13-2.54-13"/></g></g></svg>