<svg id="图层_1" data-name="图层 1" xmlns="http://www.w3.org/2000/svg" viewBox="0 0 4081.89 3061.42"><defs><style>.cls-1{fill:#fff;}.cls-2{fill:#66a950;}</style></defs><title>logo_large2</title><rect class="cls-1" width="4081.89" height="3061.42"/><g id="Layer_2" data-name="Layer 2"><g id="Layer_1-2" data-name="Layer 1-2"><path d="M1055.33,1915.11h57.6v28.21h.91a63.57,63.57,0,0,1,59.81-34.45c38,0,59.81,20.54,59.81,68.52V2156h-60.33V1989.87c0-24.57-7.8-33.54-26-33.54-21.46,0-31.86,13-31.86,39.78V2156h-59.94Z"/><path d="M1438.51,1915.11V2144c0,64.1-27.44,94.53-97.78,94.53-51,0-79.83-23.28-79.83-65h57.6a21.71,21.71,0,0,0,9.23,18.33,34.57,34.57,0,0,0,20,6.76c24.45,0,33.16-18.33,33.16-43.43v-30.94H1380a62.93,62.93,0,0,1-50.19,29.51c-47.46,0-71.9-33.93-71.9-121.7,0-56.43,8.71-122.74,73.72-122.74a52,52,0,0,1,48.37,32.89h.91v-26.91Zm-90.37,190.74c26,0,32.77-28.21,32.77-68.91,0-58.64-7.41-80.61-31.47-80.61-26,0-31.33,22-31.33,86.85,0,33.16,4.29,62.67,30,62.67"/><path d="M1521.46,2045v19.25c0,28.6,7.42,56,29.65,56s28.35-14.83,31.86-45.25h54.09c-2.21,55.91-27.44,87.24-85,87.24-87.38,0-91-68.91-91-129,0-65,12.23-124.43,93.36-124.43,70.21,0,86,48.37,86,122.22V2045Zm61.51-36.79c-1.3-36.67-5.72-57.22-30.56-57.22s-31,25-31,47.85v9.37Z"/><rect x="1663.19" y="1836.31" width="60.2" height="319.73"/><polygon points="1851.73 1836.31 1945.08 1836.31 1989.68 2062.03 1990.46 2062.03 2035.45 1836.31 2128.42 1836.31 2128.42 2156.04 2070.82 2156.04 2070.82 1900.81 2069.91 1900.81 2014.52 2156.04 1965.63 2156.04 1910.24 1900.81 1909.33 1900.81 1909.33 2156.04 1851.73 2156.04 1851.73 1836.31"/><path d="M2160.27,1989v-5.72c0-55.65,37.06-74.37,82.44-74.37,71.51,0,85.16,30.42,85.16,73.85v126.77a105.52,105.52,0,0,0,7.42,46.55h-57.61a91.17,91.17,0,0,1-7.41-25.09h-.91c-14,25.09-30.55,31.33-59.81,31.33-41.87,0-56.69-36.66-56.69-68.91,0-45.64,17.81-63.58,59.29-75.28l34.07-9.36c17.94-5,24.05-12.1,24.05-28.22,0-18.33-7.54-29.65-27.95-29.65s-28,12.23-28,31.47V1989Zm110,46.68a67.72,67.72,0,0,1-26,12.09c-24.32,5.33-33.94,17.43-33.94,39,0,18.33,6.5,33.68,22.63,33.68a35.89,35.89,0,0,0,37.18-34.54c0-.88,0-1.77,0-2.65Z"/><path d="M2403.68,2077.25v7.93c0,21.06,10.92,35,31.46,35a26.93,26.93,0,0,0,30.56-28.74c0-15.6-10-22.36-21.84-27.3l-42.26-15.74c-33.16-12.09-50.19-33-50.19-67.09,0-39,24.83-72.55,86.33-72.55,54.61,0,80.36,25.09,80.36,68.52v9.88H2464c0-24.7-7-36.28-26-36.28a26,26,0,0,0-28.24,23.56c-.07.82-.1,1.63-.1,2.45,0,12.09,5.59,21.58,26,28.21l36.28,13c38,13,52,32.63,52,68.91,0,50.58-36.67,75.67-87.25,75.67-68.13,0-86.46-29.9-86.46-76.58v-8.45Z"/><path d="M2586.62,2077.25v7.93c0,21.06,10.79,35,31.34,35a26.93,26.93,0,0,0,30.38-22.94,27.44,27.44,0,0,0,.17-5.8c0-15.6-10-22.36-21.84-27.3l-41.74-15.61c-33.15-12.09-50.19-33-50.19-67.09,0-39,24.84-72.55,86.34-72.55,54.61,0,80.35,25.09,80.35,68.52v9.88h-54.09c0-24.7-7-36.28-26-36.28a26,26,0,0,0-28.24,23.56c-.08.82-.11,1.63-.11,2.45,0,12.09,5.59,21.58,26,28.21l36.27,13c38,13,52,32.63,52,68.91,0,50.58-36.66,75.67-87.24,75.67-68.14,0-86.47-29.9-86.47-76.58v-8.45Z"/><path d="M2724.84,1989v-5.72c0-55.65,37.18-74.37,82.56-74.37,71.52,0,85,30.42,85,73.85v126.77a105.51,105.51,0,0,0,7.41,46.55h-57.6a94.82,94.82,0,0,1-7.41-25.09h-.91c-13.92,25.09-30.56,31.33-59.68,31.33-42,0-56.82-36.66-56.82-68.91,0-45.64,17.94-63.58,59.42-75.28l34.06-9.36c17.82-5,23.93-12.1,23.93-28.22,0-18.33-7.41-29.65-28-29.65s-27.82,12.23-27.82,31.47V1989Zm110,46.68a68.49,68.49,0,0,1-26,12.09c-24.44,5.33-34.06,17.43-34.06,39,0,18.33,6.63,33.68,22.75,33.68a35.76,35.76,0,0,0,37.06-34.41c0-.92,0-1.85,0-2.78Z"/><path d="M3100.09,1915.11V2144c0,64.1-27.44,94.53-97.65,94.53-51.1,0-79.84-23.28-79.84-65h57.6a21.57,21.57,0,0,0,9.11,18.33,35,35,0,0,0,20,6.76c24.44,0,33.29-18.33,33.29-43.43v-30.94h-.91a62.94,62.94,0,0,1-50.19,29.51c-47.59,0-72-33.93-72-121.7,0-56.43,8.71-122.74,73.73-122.74a52,52,0,0,1,48.5,33.15h.91V1915.5Zm-90.24,190.74c26,0,32.77-28.21,32.77-68.91,0-58.64-7.55-80.61-31.47-80.61-26.65,0-31.47,22-31.47,86.85,0,33.16,4.43,62.67,30.17,62.67"/><path d="M3183,2045v19.25c0,28.6,7.41,56,29.65,56s28.34-14.83,31.85-45.25h54.22c-2.21,55.91-27.56,87.24-85.16,87.24-87.25,0-91-68.91-91-129,0-65,12.22-124.43,93.36-124.43,70.34,0,85.94,48.37,85.94,122.22V2045Zm61.5-36.79c-1.3-36.67-5.59-57.22-30.55-57.22s-30.95,25-30.95,47.85v9.37Z"/><path d="M886,1836.31h78L1046.49,2156h-65L967,2088.43h-83.6L868.61,2156h-65Zm8.58,199.33h61.11L925.3,1891.83h-.78Z"/><path class="cls-1" d="M2323.32,1350.28c-13-6.24-31.59,5.85-40,26.92s-4.43,43.43,9.36,49.67,31.59-6.11,40-27.31,4.17-43.17-9.36-49.28"/><path class="cls-2" d="M2052.87,550.9c-264.9.21-479.48,215.14-479.27,480s215.15,479.49,480.05,479.27,479.34-215,479.27-479.79S2318.23,550.9,2053.39,550.9h-.52"/><path class="cls-1" d="M2034.67,724a123.13,123.13,0,1,0,0,.53l0-.53"/><path class="cls-1" d="M1843.79,975.55c-31.46-55.78-15.73-99.59-15.73-99.59a81.64,81.64,0,0,1-34.71-26,95.25,95.25,0,0,1-13-45.64s-40,13-58.38,39c-11.57,16.38-61.37,107.4,86.21,195,64.1,38.22,150.7,32.63,150.7,32.63s-82.18-38.23-115.08-95.44"/><path class="cls-1" d="M2161.18,702.11a247.12,247.12,0,0,0-114-60.2,166.49,166.49,0,0,1,21.2,47.72,129.66,129.66,0,0,1,0,46.81s26,32,14.17,91-79.32,141.72-79.32,141.72,91-31.46,138.22-81.26c53.7-56,59.16-144.72,19.5-185.42"/><path class="cls-1" d="M1992.93,1322.07c-20-13-52,1.3-70.6,32.11s-18.07,67,2.21,80.1,52-1.69,71-32.9,17.56-66.31-2.6-79.31"/><path class="cls-1" d="M2091.75,1376.16c-14.82-9.75-38.1.78-52,23.66s-13,49.54,1.56,59.42,38.36-1,52-24,13-49.28-1.69-59"/><path class="cls-1" d="M2183.29,1374.73c-15-7.54-35.63,4.94-46.29,28.21s-7.15,48.37,7.8,55.91,35.89-5.33,46.42-28.6,6.89-48-7.93-55.52"/><path class="cls-1" d="M1840.93,1209a295.56,295.56,0,0,0-101.15,53.7,270.34,270.34,0,0,1,81.78-53.83,513.44,513.44,0,0,1,118.19-27.18s-103-53.31-182.81-18.07C1666.7,1203.49,1607.8,1330,1607.8,1330a103.94,103.94,0,0,1,52.92-12,239.08,239.08,0,0,1,69.43,18.72s73.34,26.92,125.22,0c65-33.68,104-132.23,104-132.23s-71.91-8.85-117.81,4.42"/><path class="cls-1" d="M2421.88,837.73s28.61,159.93-38.36,255.63c-101.67,145.36-244.31,146.66-236,49.67,6.5-75.29,72.68-121.84,130-190.75,54.61-65.66,102.72-123.13,112.61-169,16.12-76.46-6.38-167.73-6.38-167.73s28.35,148.75-80.48,226c-216.62,153.43-310.24,189.31-312.06,325.06-1.17,75.41,74.64,216.49,280.33,139.52,160.84-60.08,182-254.33,183.34-299.06,2.73-76.32-33-169-33-169"/></g></g></svg>